<mxfile host="www.draw.io" modified="2019-12-04T01:09:50.743Z" agent="Mozilla/5.0 (Windows NT 10.0; Win64; x64; rv:71.0) Gecko/20100101 Firefox/71.0" etag="oWxf5VThXsv5dwn_ojuo" version="12.3.0" type="github" pages="1">
  <diagram name="Page-1" id="97916047-d0de-89f5-080d-49f4d83e522f">
    <mxGraphModel dx="1536" dy="940" grid="1" gridSize="10" guides="1" tooltips="1" connect="1" arrows="1" fold="1" page="1" pageScale="1.5" pageWidth="1400" pageHeight="850" background="#ffffff" math="0" shadow="0">
      <root>
        <mxCell id="0"/>
        <mxCell id="1" parent="0"/>
        <mxCell id="3" value="Staff and Faculty" style="rounded=1;fillColor=#10739E;strokeColor=none;shadow=1;gradientColor=none;fontStyle=1;fontColor=#FFFFFF;fontSize=14;" parent="1" vertex="1">
          <mxGeometry x="721" y="380" width="220" height="60" as="geometry"/>
        </mxCell>
        <mxCell id="7HnK9eXFFECSjdr3EfDR-93" value="Proposed GIS Licensing Process at UCLA " style="text;html=1;align=center;verticalAlign=middle;whiteSpace=wrap;rounded=0;fontSize=25;fillColor=#ffffff;" parent="1" vertex="1">
          <mxGeometry x="680" y="140" width="840" height="20" as="geometry"/>
        </mxCell>
        <mxCell id="4" value="Software Central&#xa;(Office of Information Technology)" style="rounded=1;fillColor=#10739E;strokeColor=none;shadow=1;gradientColor=none;fontStyle=1;fontColor=#FFFFFF;fontSize=14;verticalAlign=middle;whiteSpace=wrap;" parent="1" vertex="1">
          <mxGeometry x="731" y="607" width="200" height="60" as="geometry"/>
        </mxCell>
        <mxCell id="7HnK9eXFFECSjdr3EfDR-106" value="ArcGIS Pro" style="ellipse;whiteSpace=wrap;html=1;rounded=0;shadow=0;align=center;fillColor=#d5e8d4;strokeColor=#82b366;" parent="1" vertex="1">
          <mxGeometry x="1361.5" y="768.5" width="120" height="80" as="geometry"/>
        </mxCell>
        <mxCell id="7HnK9eXFFECSjdr3EfDR-63" value="ArcGIS Desktop" style="ellipse;whiteSpace=wrap;html=1;rounded=0;shadow=0;align=center;fillColor=#fff2cc;strokeColor=#d6b656;" parent="1" vertex="1">
          <mxGeometry x="771" y="768.5" width="120" height="80" as="geometry"/>
        </mxCell>
        <mxCell id="7HnK9eXFFECSjdr3EfDR-109" value="&lt;div&gt;ArcGIS Online&lt;/div&gt;&lt;div&gt;Account&lt;br&gt;&lt;/div&gt;" style="ellipse;whiteSpace=wrap;html=1;rounded=0;shadow=0;align=center;fillColor=#e1d5e7;strokeColor=#9673a6;" parent="1" vertex="1">
          <mxGeometry x="1156.5" y="768.5" width="120" height="80" as="geometry"/>
        </mxCell>
        <mxCell id="H59tsssAcC0b1_6VI9c5-33" value="UCLA" style="rounded=1;fillColor=#10739E;strokeColor=none;shadow=1;gradientColor=none;fontStyle=1;fontColor=#FFFFFF;fontSize=19;" vertex="1" parent="1">
          <mxGeometry x="990" y="210" width="220" height="60" as="geometry"/>
        </mxCell>
        <mxCell id="7HnK9eXFFECSjdr3EfDR-132" value="Students" style="rounded=1;fillColor=#10739E;strokeColor=none;shadow=1;gradientColor=none;fontStyle=1;fontColor=#FFFFFF;fontSize=14;" parent="1" vertex="1">
          <mxGeometry x="1207" y="380" width="220" height="60" as="geometry"/>
        </mxCell>
        <mxCell id="7HnK9eXFFECSjdr3EfDR-133" value="" style="edgeStyle=elbowEdgeStyle;elbow=vertical;strokeWidth=4;endArrow=block;endFill=1;fontStyle=1;strokeColor=#23445D;fontSize=12;rounded=0;exitX=0.5;exitY=1;exitDx=0;exitDy=0;entryX=0.5;entryY=0;entryDx=0;entryDy=0;" parent="1" target="7HnK9eXFFECSjdr3EfDR-132" edge="1">
          <mxGeometry x="161" y="170" width="100" height="100" as="geometry">
            <mxPoint x="1100.2857142857147" y="271.28571428571445" as="sourcePoint"/>
            <mxPoint x="1769.5" y="535.5" as="targetPoint"/>
            <Array as="points">
              <mxPoint x="1231" y="330"/>
            </Array>
            <mxPoint x="18" y="-37" as="offset"/>
          </mxGeometry>
        </mxCell>
        <mxCell id="7HnK9eXFFECSjdr3EfDR-134" value="" style="edgeStyle=elbowEdgeStyle;elbow=vertical;strokeWidth=4;endArrow=block;endFill=1;fontStyle=1;strokeColor=#23445D;fontSize=12;rounded=0;exitX=0.5;exitY=1;exitDx=0;exitDy=0;entryX=0.5;entryY=0;entryDx=0;entryDy=0;" parent="1" target="3" edge="1">
          <mxGeometry x="171" y="180" width="100" height="100" as="geometry">
            <mxPoint x="1100.2857142857147" y="271.28571428571445" as="sourcePoint"/>
            <mxPoint x="1357" y="360" as="targetPoint"/>
            <Array as="points">
              <mxPoint x="1097" y="330"/>
            </Array>
            <mxPoint x="18" y="-37" as="offset"/>
          </mxGeometry>
        </mxCell>
        <mxCell id="7HnK9eXFFECSjdr3EfDR-161" value="" style="endArrow=block;html=1;labelBackgroundColor=#ffffff;fontSize=11;entryX=0.5;entryY=0;entryDx=0;entryDy=0;exitX=0.5;exitY=1;exitDx=0;exitDy=0;fontStyle=1;strokeColor=#23445D;strokeWidth=4;endFill=1;" parent="1" source="3" target="4" edge="1">
          <mxGeometry width="50" height="50" relative="1" as="geometry">
            <mxPoint x="221" y="1320" as="sourcePoint"/>
            <mxPoint x="271" y="1270" as="targetPoint"/>
          </mxGeometry>
        </mxCell>
        <mxCell id="7HnK9eXFFECSjdr3EfDR-166" value="" style="endArrow=block;html=1;labelBackgroundColor=#ffffff;strokeColor=#23445D;fontSize=11;entryX=0.5;entryY=0;entryDx=0;entryDy=0;exitX=0.5;exitY=1;exitDx=0;exitDy=0;rounded=1;fontStyle=1;strokeWidth=4;endFill=1;" parent="1" source="H59tsssAcC0b1_6VI9c5-46" target="7HnK9eXFFECSjdr3EfDR-109" edge="1">
          <mxGeometry width="50" height="50" relative="1" as="geometry">
            <mxPoint x="1340" y="558.5" as="sourcePoint"/>
            <mxPoint x="594" y="1228.5" as="targetPoint"/>
          </mxGeometry>
        </mxCell>
        <mxCell id="7HnK9eXFFECSjdr3EfDR-169" value="For ArcGIS Desktop" style="endArrow=classic;html=1;dashed=1;labelBackgroundColor=#FFFFFF;strokeColor=#999999;fontSize=16;exitX=0;exitY=0.5;exitDx=0;exitDy=0;strokeWidth=2;fontColor=#666666;entryX=1;entryY=0.5;entryDx=0;entryDy=0;" parent="1" source="7HnK9eXFFECSjdr3EfDR-132" target="3" edge="1">
          <mxGeometry width="50" height="50" relative="1" as="geometry">
            <mxPoint x="1669.5" y="576.5" as="sourcePoint"/>
            <mxPoint x="930" y="550" as="targetPoint"/>
          </mxGeometry>
        </mxCell>
        <mxCell id="7HnK9eXFFECSjdr3EfDR-171" value="" style="endArrow=block;html=1;labelBackgroundColor=#ffffff;strokeColor=#23445D;fontSize=11;fontStyle=1;strokeWidth=4;endFill=1;exitX=0.5;exitY=1;exitDx=0;exitDy=0;" parent="1" source="4" target="7HnK9eXFFECSjdr3EfDR-63" edge="1">
          <mxGeometry width="50" height="50" relative="1" as="geometry">
            <mxPoint x="691" y="1211" as="sourcePoint"/>
            <mxPoint x="741" y="1161" as="targetPoint"/>
          </mxGeometry>
        </mxCell>
        <mxCell id="H59tsssAcC0b1_6VI9c5-36" value="" style="endArrow=block;html=1;labelBackgroundColor=#ffffff;strokeColor=#23445D;fontSize=11;rounded=1;fontStyle=1;strokeWidth=4;endFill=1;exitX=0.5;exitY=1;exitDx=0;exitDy=0;entryX=0.5;entryY=0;entryDx=0;entryDy=0;" edge="1" parent="1" source="H59tsssAcC0b1_6VI9c5-45" target="7HnK9eXFFECSjdr3EfDR-106">
          <mxGeometry width="50" height="50" relative="1" as="geometry">
            <mxPoint x="1340" y="558.5" as="sourcePoint"/>
            <mxPoint x="1503" y="708.5" as="targetPoint"/>
          </mxGeometry>
        </mxCell>
        <mxCell id="H59tsssAcC0b1_6VI9c5-45" value="Software Central FTP" style="rounded=1;fillColor=#10739E;strokeColor=none;shadow=1;gradientColor=none;fontStyle=1;fontColor=#FFFFFF;fontSize=14;verticalAlign=middle;whiteSpace=wrap;" vertex="1" parent="1">
          <mxGeometry x="1350" y="631.5" width="143" height="60" as="geometry"/>
        </mxCell>
        <mxCell id="H59tsssAcC0b1_6VI9c5-46" value="UCLA ArcGIS Online:&#xa;ucla.maps.arcgis.com" style="rounded=1;fillColor=#10739E;strokeColor=none;shadow=1;gradientColor=none;fontStyle=1;fontColor=#FFFFFF;fontSize=14;verticalAlign=middle;whiteSpace=wrap;" vertex="1" parent="1">
          <mxGeometry x="1130" y="631.5" width="173" height="60" as="geometry"/>
        </mxCell>
        <mxCell id="H59tsssAcC0b1_6VI9c5-47" value="" style="edgeStyle=elbowEdgeStyle;elbow=vertical;strokeWidth=4;endArrow=block;endFill=1;fontStyle=1;strokeColor=#23445D;fontSize=12;rounded=0;exitX=0.5;exitY=1;exitDx=0;exitDy=0;entryX=0.5;entryY=0;entryDx=0;entryDy=0;" edge="1" parent="1" source="H59tsssAcC0b1_6VI9c5-49" target="H59tsssAcC0b1_6VI9c5-45">
          <mxGeometry x="171" y="180" width="100" height="100" as="geometry">
            <mxPoint x="1110.2857142857147" y="281.28571428571445" as="sourcePoint"/>
            <mxPoint x="1326.666666666667" y="390.3333333333335" as="targetPoint"/>
            <Array as="points">
              <mxPoint x="1380" y="580"/>
            </Array>
            <mxPoint x="18" y="-37" as="offset"/>
          </mxGeometry>
        </mxCell>
        <mxCell id="H59tsssAcC0b1_6VI9c5-48" value="" style="edgeStyle=elbowEdgeStyle;elbow=vertical;strokeWidth=4;endArrow=block;endFill=1;fontStyle=1;strokeColor=#23445D;fontSize=12;rounded=0;exitX=0.5;exitY=1;exitDx=0;exitDy=0;entryX=0.5;entryY=0;entryDx=0;entryDy=0;" edge="1" parent="1" source="H59tsssAcC0b1_6VI9c5-49" target="H59tsssAcC0b1_6VI9c5-46">
          <mxGeometry x="181" y="190" width="100" height="100" as="geometry">
            <mxPoint x="1326.666666666667" y="450.3333333333335" as="sourcePoint"/>
            <mxPoint x="1436.666666666667" y="615.3333333333335" as="targetPoint"/>
            <Array as="points">
              <mxPoint x="1280" y="580"/>
            </Array>
            <mxPoint x="18" y="-37" as="offset"/>
          </mxGeometry>
        </mxCell>
        <mxCell id="H59tsssAcC0b1_6VI9c5-54" value="" style="endArrow=block;html=1;fontStyle=1;strokeColor=#23445D;strokeWidth=4;endFill=1;entryX=0;entryY=0.5;entryDx=0;entryDy=0;" edge="1" parent="1" target="H59tsssAcC0b1_6VI9c5-49">
          <mxGeometry width="50" height="50" relative="1" as="geometry">
            <mxPoint x="830" y="517" as="sourcePoint"/>
            <mxPoint x="1320" y="480" as="targetPoint"/>
          </mxGeometry>
        </mxCell>
        <mxCell id="H59tsssAcC0b1_6VI9c5-49" value="Shibboleth" style="rounded=0;whiteSpace=wrap;html=1;glass=0;comic=0;strokeColor=#B3B3B3;" vertex="1" parent="1">
          <mxGeometry x="1216.5" y="500" width="200" height="34" as="geometry"/>
        </mxCell>
        <mxCell id="H59tsssAcC0b1_6VI9c5-56" value="" style="elbow=vertical;strokeWidth=4;endArrow=block;endFill=1;fontStyle=1;strokeColor=#23445D;fontSize=12;rounded=0;exitX=0.5;exitY=1;exitDx=0;exitDy=0;entryX=0.5;entryY=0;entryDx=0;entryDy=0;" edge="1" parent="1" source="7HnK9eXFFECSjdr3EfDR-132" target="H59tsssAcC0b1_6VI9c5-49">
          <mxGeometry x="171" y="180" width="100" height="100" as="geometry">
            <mxPoint x="1316.666666666667" y="440.3333333333335" as="sourcePoint"/>
            <mxPoint x="1421.666666666667" y="593.6666666666667" as="targetPoint"/>
            <mxPoint x="18" y="-37" as="offset"/>
          </mxGeometry>
        </mxCell>
      </root>
    </mxGraphModel>
  </diagram>
</mxfile>
